<?xml version="1.0" encoding="utf-8"?>
<!-- Generator: Adobe Illustrator 24.0.0, SVG Export Plug-In . SVG Version: 6.00 Build 0)  -->
<svg version="1.1" id="img-accueil" xmlns="http://www.w3.org/2000/svg" xmlns:xlink="http://www.w3.org/1999/xlink" x="0px"
	 y="0px" viewBox="0 0 180.7 109.3" style="enable-background:new 0 0 180.7 109.3;" xml:space="preserve">
<style type="text/css">
	.st0{fill:#3F3D56;}
	.st1{fill:#CCCCCC;}
</style>
<g id="browser">
	<path id="Tracé_1" class="st0" d="M177.7,0H3.1C1.4,0,0,1.4,0,3.1v103.1c0,1.7,1.4,3.1,3.1,3.1h174.5c1.7,0,3.1-1.4,3.1-3.1V3.1
		C180.8,1.4,179.4,0,177.7,0z M180.1,106.2c0,1.3-1.1,2.4-2.4,2.4H3.1c-1.3,0-2.4-1.1-2.4-2.4V3.1c0-1.3,1.1-2.4,2.4-2.4h174.5
		c1.3,0,2.4,1.1,2.4,2.4v103.1H180.1z"/>
	<rect id="Rectangle_2" x="0.3" y="11.8" class="st0" width="180.1" height="0.7"/>
	<circle id="Ellipse_1" class="st1" cx="6.3" cy="6.1" r="1.7"/>
	<circle id="Ellipse_2" class="st1" cx="11.5" cy="6.1" r="1.7"/>
	<circle id="Ellipse_3" class="st1" cx="16.7" cy="6.1" r="1.7"/>
	<path id="Rectangle_3" class="st1" d="M18.6,24.7h143.5c2,0,3.7,1.6,3.7,3.7l0,0c0,2-1.6,3.7-3.7,3.7H18.6c-2,0-3.7-1.6-3.7-3.7
		l0,0C15,26.4,16.6,24.7,18.6,24.7z"/>
</g>
</svg>
