<?xml version="1.0" encoding="utf-8"?>
<!-- Generator: Adobe Illustrator 24.0.0, SVG Export Plug-In . SVG Version: 6.00 Build 0)  -->
<svg version="1.1" id="img-accueil" xmlns="http://www.w3.org/2000/svg" xmlns:xlink="http://www.w3.org/1999/xlink" x="0px"
	 y="0px" viewBox="0 0 90.3 100.3" style="enable-background:new 0 0 90.3 100.3;" xml:space="preserve">
<style type="text/css">
	.st0{fill:#6C63FF;}
	.st1{fill:#FFFFFF;}
</style>
<g id="file">
	<path id="Tracé_2" class="st0" d="M87.3,100.3H3c-1.6,0-3-1.3-3-3V3c0-1.6,1.3-3,3-3h84.3c1.6,0,3,1.3,3,3v94.4
		C90.3,99,88.9,100.3,87.3,100.3z"/>
	<path id="Tracé_3" class="st1" d="M69.9,48.4H20.4C18,48.4,16,46.5,16,44c0-2.4,1.9-4.4,4.4-4.4h49.5c2.4,0,4.4,1.9,4.4,4.4
		S72.3,48.4,69.9,48.4L69.9,48.4z"/>
	<path id="Tracé_4" class="st1" d="M69.9,64.6H20.4c-2.4,0-4.4-1.9-4.4-4.4c0-2.4,1.9-4.4,4.4-4.4h49.5c2.4,0,4.4,1.9,4.4,4.4
		S72.3,64.6,69.9,64.6L69.9,64.6z"/>
	<path id="Tracé_5" class="st1" d="M69.9,81H20.4C18,81,16,79.1,16,76.6s1.9-4.4,4.4-4.4h49.5c2.4,0,4.4,1.9,4.4,4.4
		S72.3,81,69.9,81z"/>
	<path id="Tracé_6" class="st1" d="M54.7,27H35.6c-2.4,0-4.4-1.9-4.4-4.4s2-4.3,4.4-4.3h19.2c2.4,0,4.4,1.9,4.4,4.4
		S57.1,27,54.7,27L54.7,27z"/>
</g>
</svg>
