<svg id="img-accueil" xmlns="http://www.w3.org/2000/svg" width="291.748" height="211.452" viewBox="0 0 291.748 211.452">
  <path id="Tracé_1" data-name="Tracé 1" d="M353.826,142.389H179.3a3.14,3.14,0,0,0-3.135,3.135V248.638a3.14,3.14,0,0,0,3.135,3.135H353.826a3.14,3.14,0,0,0,3.135-3.135V145.524A3.14,3.14,0,0,0,353.826,142.389Zm2.439,106.249a2.441,2.441,0,0,1-2.439,2.439H179.3a2.441,2.441,0,0,1-2.439-2.438V145.524a2.441,2.441,0,0,1,2.439-2.439H353.826a2.441,2.441,0,0,1,2.439,2.439Z" transform="translate(-176.164 -142.389)" fill="#3f3d56"/>
  <rect id="Rectangle_2" data-name="Rectangle 2" width="180.1" height="0.697" transform="translate(0.348 11.844)" fill="#3f3d56"/>
  <circle id="Ellipse_1" data-name="Ellipse 1" cx="1.742" cy="1.742" r="1.742" transform="translate(4.529 4.355)" fill="#ccc"/>
  <circle id="Ellipse_2" data-name="Ellipse 2" cx="1.742" cy="1.742" r="1.742" transform="translate(9.754 4.355)" fill="#ccc"/>
  <circle id="Ellipse_3" data-name="Ellipse 3" cx="1.742" cy="1.742" r="1.742" transform="translate(14.979 4.355)" fill="#ccc"/>
  <path id="Tracé_2" data-name="Tracé 2" d="M389.78,384.133h-84.3a2.964,2.964,0,0,1-2.961-2.961v-94.4a2.964,2.964,0,0,1,2.961-2.961h84.3a2.964,2.964,0,0,1,2.961,2.961v94.4A2.964,2.964,0,0,1,389.78,384.133Z" transform="translate(-257.23 -233.121)" fill="#6c63ff"/>
  <path id="Tracé_3" data-name="Tracé 3" d="M401.047,403.317H351.58a4.354,4.354,0,1,1,0-8.709h49.467a4.354,4.354,0,0,1,0,8.709Z" transform="translate(-285.915 -304.209)" fill="#fff"/>
  <path id="Tracé_4" data-name="Tracé 4" d="M401.047,448.512H351.58a4.354,4.354,0,1,1,0-8.709h49.467a4.354,4.354,0,1,1,0,8.709Z" transform="translate(-285.915 -333.206)" fill="#fff"/>
  <path id="Tracé_5" data-name="Tracé 5" d="M401.047,494.193H351.58a4.354,4.354,0,0,1,0-8.709h49.467a4.354,4.354,0,0,1,0,8.709Z" transform="translate(-285.915 -362.514)" fill="#fff"/>
  <path id="Tracé_6" data-name="Tracé 6" d="M413.019,343.542H393.86a4.354,4.354,0,1,1,0-8.709h19.16a4.354,4.354,0,0,1,0,8.709Z" transform="translate(-313.041 -265.859)" fill="#fff"/>
  <rect id="Rectangle_3" data-name="Rectangle 3" width="150.838" height="7.315" rx="3.658" transform="translate(14.979 24.733)" fill="#ccc"/>
  <path id="Tracé_7" data-name="Tracé 7" d="M887.386,529.563a4.182,4.182,0,0,0,1.5-6.236l9.746-53.935-9.094-.12-6.768,53.334a4.2,4.2,0,0,0,4.621,6.956Z" transform="translate(-622.009 -374.609)" fill="#a0616a"/>
  <path id="Tracé_8" data-name="Tracé 8" d="M650.974,456.906l-3.453,16.4.432,36.683h6.474l3.021-35.82,4.747-15.1Z" transform="translate(-413.822 -304.51)" fill="#a0616a"/>
  <path id="Tracé_9" data-name="Tracé 9" d="M699.571,456.906l-3.453,16.4.432,36.683h6.474l3.021-35.82,4.747-15.1Z" transform="translate(-440.841 -304.51)" fill="#a0616a"/>
  <path id="Tracé_10" data-name="Tracé 10" d="M6.424,0h10.2V6.425H0A6.425,6.425,0,0,1,6.424,0Z" transform="matrix(0.999, 0.045, -0.045, 0.999, 225.593, 204.169)" fill="#1e3e4e"/>
  <path id="Tracé_11" data-name="Tracé 11" d="M6.424,0h10.2V6.425H0A6.425,6.425,0,0,1,6.424,0Z" transform="matrix(0.999, 0.045, -0.045, 0.999, 247.172, 204.169)" fill="#1e3e4e"/>
  <ellipse id="Ellipse_4" data-name="Ellipse 4" cx="10.6" cy="10.6" rx="10.6" ry="10.6" transform="translate(242.304 50.773)" fill="#a0616a"/>
  <path id="Tracé_12" data-name="Tracé 12" d="M871.718,438c-3.507-5.5-15.176-19.216-32.487-7.911,0,0,4.1,34.309-5.826,52.866,0,0,22.873,6.905,35.388.432,0,0-4.316-28.915,0-34.525a23.267,23.267,0,0,0,3.458-5.924A5.563,5.563,0,0,0,871.718,438Z" transform="translate(-595.39 -350.41)" fill="#1ec1b6"/>
  <path id="Tracé_13" data-name="Tracé 13" d="M905.325,452.533l4.235,1.765a1.6,1.6,0,0,1,.986,1.414l.389,9.336-9.495-.863Z" transform="translate(-633.216 -365.303)" fill="#0e9e94"/>
  <path id="Tracé_14" data-name="Tracé 14" d="M827.3,552.643s-9.494,17.694-7.768,34.094l13.378,2.158,9.495-22.873-2.158,23.3,13.81.432s9.063-33.662,6.042-36.683Z" transform="translate(-587.562 -420.962)" fill="#1e3e4e"/>
  <path id="Tracé_15" data-name="Tracé 15" d="M824.21,519.844a4.182,4.182,0,0,0,1.5-6.236l9.745-53.935-9.094-.12-6.768,53.334a4.2,4.2,0,0,0,4.621,6.956Z" transform="translate(-586.885 -369.206)" fill="#a0616a"/>
  <path id="Tracé_16" data-name="Tracé 16" d="M843.331,435.393l-3.884-.432s-3.453-.863-4.747,3.884-1.295,14.242-1.295,14.242l12.084-.432Z" transform="translate(-595.39 -355.499)" fill="#0e9e94"/>
  <path id="Tracé_17" data-name="Tracé 17" d="M855.657,380.628c.381-1.321.271-3.109-1.01-3.609a4.581,4.581,0,0,0-2.125.018,5.67,5.67,0,0,1-3.919-1.079,11.283,11.283,0,0,1-2.921-3.948l-1.176-2.2a9.559,9.559,0,0,1-.667-1.436,5.665,5.665,0,0,1,1.51-5.646,8.189,8.189,0,0,1,5.594-2.193,15.1,15.1,0,0,1,5.978,1.281,26.439,26.439,0,0,1,8.913,5.988c1.654,1.692,3.159,3.9,2.814,6.236-.269,1.822-1.6,3.281-2.863,4.618l-4.594,4.849a6.755,6.755,0,0,1-2.819,2.083,2.325,2.325,0,0,1-2.909-1.3A13.458,13.458,0,0,1,855.657,380.628Z" transform="translate(-601.055 -314.152)" fill="#1e3e4e"/>
  <path id="Tracé_18" data-name="Tracé 18" d="M809.325,730.761a.35.35,0,0,1-.349.348H708.65a.348.348,0,1,1,0-.7H808.976A.35.35,0,0,1,809.325,730.761Z" transform="translate(-517.576 -519.657)" fill="#3f3d56"/>
</svg>
