<?xml version="1.0" encoding="utf-8"?>
<!-- Generator: Adobe Illustrator 24.0.0, SVG Export Plug-In . SVG Version: 6.00 Build 0)  -->
<svg version="1.1" id="img-accueil" xmlns="http://www.w3.org/2000/svg" xmlns:xlink="http://www.w3.org/1999/xlink" x="0px"
	 y="0px" viewBox="0 0 100.9 165" style="enable-background:new 0 0 100.9 165;" xml:space="preserve">
<style type="text/css">
	.st0{fill:#A0616A;}
	.st1{fill:#1E3E4E;}
	.st2{fill:#1EC1B6;}
	.st3{fill:#0E9E94;}
	.st4{fill:#3F3D56;}
</style>
<g id="person">
	<path id="Tracé_7" class="st0" d="M74.6,108.5c2.1-1,2.9-3.5,1.9-5.6c-0.1-0.2-0.2-0.4-0.4-0.6l9.7-53.9l-9.1-0.1l-6.8,53.3
		c-1.8,1.5-2,4.1-0.5,5.9C70.7,109,72.8,109.4,74.6,108.5L74.6,108.5z"/>
	<path id="Tracé_8" class="st0" d="M46.4,106l-3.5,16.4l0.4,36.7h6.5l3-35.8l4.7-15.1L46.4,106z"/>
	<path id="Tracé_9" class="st0" d="M67.9,106l-3.5,16.4l0.4,36.7h6.5l3-35.8l4.7-15.1L67.9,106z"/>
	<path id="Tracé_10" class="st1" d="M41.2,158l10.2,0.5l-0.3,6.4l-16.6-0.7C34.7,160.6,37.7,157.9,41.2,158z"/>
	<path id="Tracé_11" class="st1" d="M62.8,158l10.2,0.5l-0.3,6.4l-16.6-0.7C56.2,160.6,59.2,157.9,62.8,158z"/>
	<ellipse id="Ellipse_4" class="st0" cx="62.1" cy="14.9" rx="10.6" ry="10.6"/>
	<path id="Tracé_12" class="st2" d="M85.5,41.1C82,35.6,70.3,21.9,53,33.2c0,0,4.1,34.3-5.8,52.9c0,0,22.9,6.9,35.4,0.4
		c0,0-4.3-28.9,0-34.5c1.4-1.8,2.6-3.8,3.5-5.9C86.7,44.4,86.5,42.6,85.5,41.1z"/>
	<path id="Tracé_13" class="st3" d="M81.3,40.8l4.2,1.8c0.6,0.2,1,0.8,1,1.4l0.4,9.3l-9.5-0.9L81.3,40.8z"/>
	<path id="Tracé_14" class="st1" d="M48.9,85.2c0,0-9.5,17.7-7.8,34.1l13.4,2.2L64,98.6l-2.2,23.3l13.8,0.4c0,0,9.1-33.7,6-36.7
		L48.9,85.2z"/>
	<path id="Tracé_15" class="st0" d="M46.5,104.2c2.1-1,2.9-3.5,1.9-5.6c-0.1-0.2-0.2-0.4-0.4-0.6l9.7-53.9L48.6,44l-6.7,53.2
		c-1.8,1.5-2,4.1-0.5,5.9C42.6,104.7,44.8,105.1,46.5,104.2L46.5,104.2z"/>
	<path id="Tracé_16" class="st3" d="M57.1,33.5l-3.9-0.4c0,0-3.5-0.9-4.7,3.9s-1.3,14.2-1.3,14.2l12.1-0.4L57.1,33.5z"/>
	<path id="Tracé_17" class="st1" d="M63.8,20c0.4-1.3,0.3-3.1-1-3.6c-0.7-0.2-1.4-0.2-2.1,0c-1.4,0.1-2.8-0.2-3.9-1.1
		c-1.3-1.1-2.2-2.4-2.9-3.9l-1.2-2.2c-0.3-0.5-0.5-0.9-0.7-1.4c-0.6-2,0-4.2,1.5-5.6S57,0,59.1,0s4.1,0.5,6,1.3
		c3.3,1.4,6.4,3.4,8.9,6c1.7,1.7,3.2,3.9,2.8,6.2c-0.3,1.8-1.6,3.3-2.9,4.6l-4.6,4.8c-0.7,0.9-1.7,1.6-2.8,2.1
		c-1.2,0.4-2.4-0.2-2.9-1.3C63.5,22.5,63.6,21.2,63.8,20z"/>
	<path id="Tracé_18" class="st4" d="M100.9,164.7c0,0.2-0.2,0.3-0.3,0.3H0.3c-0.2,0-0.3-0.2-0.3-0.3c0-0.2,0.2-0.4,0.3-0.4h100.3
		C100.8,164.3,100.9,164.5,100.9,164.7L100.9,164.7z"/>
</g>
</svg>
